<?xml version="1.0" standalone="no"?>
<!DOCTYPE svg PUBLIC "-//W3C//DTD SVG 20010904//EN"
 "http://www.w3.org/TR/2001/REC-SVG-20010904/DTD/svg10.dtd">
<svg version="1.0" xmlns="http://www.w3.org/2000/svg"
 width="96.000000pt" height="96.000000pt" viewBox="0 0 96.000000 96.000000"
 preserveAspectRatio="xMidYMid meet">

<g transform="translate(0.000000,96.000000) scale(0.100000,-0.100000)"
fill="#000000" stroke="none">
<path d="M300 829 c-96 -56 -183 -109 -192 -117 -16 -14 -18 -38 -18 -232 0
-244 -7 -221 87 -278 69 -41 94 -47 131 -28 46 24 52 57 52 282 0 175 -2 204
-15 204 -13 0 -15 -31 -15 -218 0 -199 -2 -220 -18 -235 -28 -25 -56 -21 -127
20 l-65 37 0 216 0 216 172 99 c94 55 177 101 184 103 7 2 91 -43 188 -100
l176 -103 0 -215 0 -216 -172 -99 c-95 -55 -177 -101 -183 -103 -6 -1 -43 15
-81 38 -38 22 -74 40 -81 40 -30 0 -8 -19 72 -64 l86 -48 152 87 c84 48 170
100 192 114 l40 27 3 218 c2 146 -1 223 -8 232 -11 12 -340 207 -370 218 -9 4
-89 -37 -190 -95z"/>
<path d="M525 655 c-5 -2 -22 -6 -38 -9 -41 -9 -67 -41 -67 -80 0 -47 35 -73
108 -81 93 -11 131 -24 149 -51 15 -24 15 -27 -4 -52 -30 -40 -99 -53 -177
-31 -28 8 -41 18 -49 40 -12 32 -37 40 -37 12 1 -48 68 -83 157 -83 99 0 163
51 147 115 -9 37 -38 52 -136 69 -109 19 -128 28 -128 66 0 43 31 60 109 60
60 0 65 -2 98 -36 19 -20 37 -34 40 -30 10 10 -14 54 -39 70 -22 14 -113 29
-133 21z"/>
</g>
</svg>
