<?xml version="1.0" standalone="no"?>
<!DOCTYPE svg PUBLIC "-//W3C//DTD SVG 20010904//EN"
 "http://www.w3.org/TR/2001/REC-SVG-20010904/DTD/svg10.dtd">
<svg version="1.0" xmlns="http://www.w3.org/2000/svg"
 width="96.000000pt" height="96.000000pt" viewBox="0 0 96.000000 96.000000"
 preserveAspectRatio="xMidYMid meet">

<g transform="translate(0.000000,96.000000) scale(0.100000,-0.100000)"
fill="#000000" stroke="none">
<path d="M400 856 c-199 -43 -336 -241 -302 -435 46 -262 324 -403 558 -285
145 74 235 251 204 407 -32 164 -153 286 -315 316 -69 13 -74 13 -145 -3z
m232 -48 c73 -34 142 -103 176 -176 23 -49 27 -70 27 -152 0 -85 -3 -101 -29
-155 -36 -73 -99 -135 -174 -172 -50 -25 -68 -28 -152 -28 -85 0 -101 3 -155
29 -199 98 -266 345 -144 530 39 58 95 102 167 133 80 33 202 30 284 -9z"/>
<path d="M350 480 c0 -123 1 -130 20 -130 19 0 20 7 20 106 l0 106 137 -175
c83 -106 142 -173 150 -170 21 8 16 22 -27 75 l-40 51 0 133 c0 127 -1 134
-20 134 -18 0 -20 -8 -22 -105 l-3 -105 -82 105 c-66 84 -88 105 -108 105
l-25 0 0 -130z"/>
</g>
</svg>
